HIERARCHY
ROOT Hips
{
	OFFSET 0.000000 201.639420 0.000000
	CHANNELS 6 Xposition Yposition Zposition Xrotation Yrotation Zrotation 
	JOINT Spine
	{
		OFFSET 0.006200 19.524994 -2.481800
		CHANNELS 3 Xrotation Yrotation Zrotation
		JOINT Spine1
		{
			OFFSET -0.007167 16.462499 -2.006233
			CHANNELS 3 Xrotation Yrotation Zrotation
			JOINT Spine1_split
			{
				OFFSET -0.007167 16.462499 -2.006233
				CHANNELS 3 Xrotation Yrotation Zrotation
				JOINT Spine2
				{
					OFFSET -0.007167 16.462499 -2.006233
					CHANNELS 3 Xrotation Yrotation Zrotation
					JOINT Neck
					{
						OFFSET -0.060000 30.701813 1.352200
						CHANNELS 3 Xrotation Yrotation Zrotation
						JOINT Head
						{
							OFFSET -0.087200 22.547607 3.670900
							CHANNELS 3 Xrotation Yrotation Zrotation
							JOINT HeadTop_End
							{
								OFFSET -0.830600 40.355194 7.893500
								CHANNELS 3 Xrotation Yrotation Zrotation
								End Site
								{
									OFFSET 0.000000 0.000000 0.000000
								}
							}
							JOINT RightEye
							{
								OFFSET -6.302100 18.118591 16.197100
								CHANNELS 3 Xrotation Yrotation Zrotation
								End Site
								{
									OFFSET 0.000000 0.000000 0.000000
								}
							}
							JOINT LeftEye
							{
								OFFSET 6.741500 18.382690 16.401899
								CHANNELS 3 Xrotation Yrotation Zrotation
								End Site
								{
									OFFSET 0.000000 0.000000 0.000000
								}
							}
						}
					}
					JOINT LeftShoulder
					{
						OFFSET 5.962450 9.115249 0.712700
						CHANNELS 3 Xrotation Yrotation Zrotation
						JOINT LeftShoulder_split
						{
							OFFSET 5.962450 9.115249 0.712700
							CHANNELS 3 Xrotation Yrotation Zrotation
							JOINT LeftArm
							{
								OFFSET 25.435989 -0.697632 -5.229300
								CHANNELS 3 Xrotation Yrotation Zrotation
								JOINT LeftForeArm
								{
									OFFSET 54.684776 0.000000 0.000000
									CHANNELS 3 Xrotation Yrotation Zrotation
									JOINT LeftHand
									{
										OFFSET 55.098175 0.000000 0.000000
										CHANNELS 3 Xrotation Yrotation Zrotation
										JOINT LeftHandMiddle1
										{
											OFFSET 23.369751 0.000000 0.000000
											CHANNELS 3 Xrotation Yrotation Zrotation
											JOINT LeftHandMiddle2
											{
												OFFSET 6.378677 0.000000 0.000000
												CHANNELS 3 Xrotation Yrotation Zrotation
												JOINT LeftHandMiddle3
												{
													OFFSET 6.148331 0.000000 0.000000
													CHANNELS 3 Xrotation Yrotation Zrotation
													JOINT LeftHandMiddle4
													{
														OFFSET 6.582504 0.000000 0.000000
														CHANNELS 3 Xrotation Yrotation Zrotation
														End Site
														{
															OFFSET 0.000000 0.000000 0.000000
														}
													}
												}
											}
										}
										JOINT LeftHandThumb1
										{
											OFFSET 7.235672 -3.848206 5.434273
											CHANNELS 3 Xrotation Yrotation Zrotation
											JOINT LeftHandThumb2
											{
												OFFSET 6.568451 -3.792297 3.792300
												CHANNELS 3 Xrotation Yrotation Zrotation
												JOINT LeftHandThumb3
												{
													OFFSET 6.063080 -3.500519 3.500518
													CHANNELS 3 Xrotation Yrotation Zrotation
													JOINT LeftHandThumb4
													{
														OFFSET 4.793182 -2.767334 2.767349
														CHANNELS 3 Xrotation Yrotation Zrotation
														End Site
														{
															OFFSET 0.000000 0.000000 0.000000
														}
													}
												}
											}
										}
										JOINT LeftHandIndex1
										{
											OFFSET 23.101074 -0.309540 4.992809
											CHANNELS 3 Xrotation Yrotation Zrotation
											JOINT LeftHandIndex2
											{
												OFFSET 6.226883 0.000000 0.000000
												CHANNELS 3 Xrotation Yrotation Zrotation
												JOINT LeftHandIndex3
												{
													OFFSET 6.094330 0.000000 0.000000
													CHANNELS 3 Xrotation Yrotation Zrotation
													JOINT LeftHandIndex4
													{
														OFFSET 5.482605 0.000000 0.000000
														CHANNELS 3 Xrotation Yrotation Zrotation
														End Site
														{
															OFFSET 0.000000 0.000000 0.000000
														}
													}
												}
											}
										}
										JOINT LeftHandRing1
										{
											OFFSET 22.299240 0.021149 -3.964172
											CHANNELS 3 Xrotation Yrotation Zrotation
											JOINT LeftHandRing2
											{
												OFFSET 6.321869 0.000000 0.000000
												CHANNELS 3 Xrotation Yrotation Zrotation
												JOINT LeftHandRing3
												{
													OFFSET 5.899796 0.000000 0.000000
													CHANNELS 3 Xrotation Yrotation Zrotation
													JOINT LeftHandRing4
													{
														OFFSET 6.517899 0.000000 0.000000
														CHANNELS 3 Xrotation Yrotation Zrotation
														End Site
														{
															OFFSET 0.000000 0.000000 0.000000
														}
													}
												}
											}
										}
										JOINT LeftHandPinky1
										{
											OFFSET 20.463791 -0.302338 -8.562233
											CHANNELS 3 Xrotation Yrotation Zrotation
											JOINT LeftHandPinky2
											{
												OFFSET 6.908646 0.000000 0.000000
												CHANNELS 3 Xrotation Yrotation Zrotation
												JOINT LeftHandPinky3
												{
													OFFSET 4.622849 0.000000 0.000000
													CHANNELS 3 Xrotation Yrotation Zrotation
													JOINT LeftHandPinky4
													{
														OFFSET 5.216080 0.000000 0.000000
														CHANNELS 3 Xrotation Yrotation Zrotation
														End Site
														{
															OFFSET 0.000000 0.000000 0.000000
														}
													}
												}
											}
										}
									}
								}
							}
						}
					}
					JOINT RightShoulder
					{
						OFFSET -6.000650 9.142044 0.674450
						CHANNELS 3 Xrotation Yrotation Zrotation
						JOINT RightShoulder_split
						{
							OFFSET -6.000650 9.142044 0.674450
							CHANNELS 3 Xrotation Yrotation Zrotation
							JOINT RightArm
							{
								OFFSET -25.308500 -0.751312 -5.164599
								CHANNELS 3 Xrotation Yrotation Zrotation
								JOINT RightForeArm
								{
									OFFSET -54.684429 0.000000 0.000000
									CHANNELS 3 Xrotation Yrotation Zrotation
									JOINT RightHand
									{
										OFFSET -55.150291 0.000000 0.000000
										CHANNELS 3 Xrotation Yrotation Zrotation
										JOINT RightHandMiddle1
										{
											OFFSET -23.317566 0.000000 0.000000
											CHANNELS 3 Xrotation Yrotation Zrotation
											JOINT RightHandMiddle2
											{
												OFFSET -6.378403 0.000000 0.000000
												CHANNELS 3 Xrotation Yrotation Zrotation
												JOINT RightHandMiddle3
												{
													OFFSET -6.148193 0.000000 0.000000
													CHANNELS 3 Xrotation Yrotation Zrotation
													JOINT RightHandMiddle4
													{
														OFFSET -6.583389 0.000000 0.000000
														CHANNELS 3 Xrotation Yrotation Zrotation
														End Site
														{
															OFFSET 0.000000 0.000000 0.000000
														}
													}
												}
											}
										}
										JOINT RightHandThumb1
										{
											OFFSET -7.190521 -3.860474 5.435846
											CHANNELS 3 Xrotation Yrotation Zrotation
											JOINT RightHandThumb2
											{
												OFFSET -6.567429 -3.791718 3.791708
												CHANNELS 3 Xrotation Yrotation Zrotation
												JOINT RightHandThumb3
												{
													OFFSET -6.062469 -3.500153 3.500166
													CHANNELS 3 Xrotation Yrotation Zrotation
													JOINT RightHandThumb4
													{
														OFFSET -4.792618 -2.767029 2.767022
														CHANNELS 3 Xrotation Yrotation Zrotation
														End Site
														{
															OFFSET 0.000000 0.000000 0.000000
														}
													}
												}
											}
										}
										JOINT RightHandIndex1
										{
											OFFSET -23.048981 -0.310791 4.992554
											CHANNELS 3 Xrotation Yrotation Zrotation
											JOINT RightHandIndex2
											{
												OFFSET -6.227539 0.000000 0.000000
												CHANNELS 3 Xrotation Yrotation Zrotation
												JOINT RightHandIndex3
												{
													OFFSET -6.095047 0.000000 0.000000
													CHANNELS 3 Xrotation Yrotation Zrotation
													JOINT RightHandIndex4
													{
														OFFSET -5.484772 0.000000 0.000000
														CHANNELS 3 Xrotation Yrotation Zrotation
														End Site
														{
															OFFSET 0.000000 0.000000 0.000000
														}
													}
												}
											}
										}
										JOINT RightHandRing1
										{
											OFFSET -22.246323 0.020569 -3.963762
											CHANNELS 3 Xrotation Yrotation Zrotation
											JOINT RightHandRing2
											{
												OFFSET -6.322128 0.000000 0.000000
												CHANNELS 3 Xrotation Yrotation Zrotation
												JOINT RightHandRing3
												{
													OFFSET -5.900024 0.000000 0.000000
													CHANNELS 3 Xrotation Yrotation Zrotation
													JOINT RightHandRing4
													{
														OFFSET -6.518356 0.000000 0.000000
														CHANNELS 3 Xrotation Yrotation Zrotation
														End Site
														{
															OFFSET 0.000000 0.000000 0.000000
														}
													}
												}
											}
										}
										JOINT RightHandPinky1
										{
											OFFSET -20.411011 -0.303314 -8.561701
											CHANNELS 3 Xrotation Yrotation Zrotation
											JOINT RightHandPinky2
											{
												OFFSET -6.907349 0.000000 0.000000
												CHANNELS 3 Xrotation Yrotation Zrotation
												JOINT RightHandPinky3
												{
													OFFSET -4.623840 0.000000 0.000000
													CHANNELS 3 Xrotation Yrotation Zrotation
													JOINT RightHandPinky4
													{
														OFFSET -5.218353 0.000000 0.000000
														CHANNELS 3 Xrotation Yrotation Zrotation
														End Site
														{
															OFFSET 0.000000 0.000000 0.000000
														}
													}
												}
											}
										}
									}
								}
							}
						}
					}
				}
			}
		}
	}
	JOINT LeftUpLeg
	{
		OFFSET 18.168400 -13.561905 -0.039000
		CHANNELS 3 Xrotation Yrotation Zrotation
		JOINT LeftLeg
		{
			OFFSET 0.577358 -80.825211 -3.695000
			CHANNELS 3 Xrotation Yrotation Zrotation
			JOINT LeftFoot
			{
				OFFSET -0.577356 -83.370262 -6.520700
				CHANNELS 3 Xrotation Yrotation Zrotation
				JOINT LeftToeBase
				{
					OFFSET 0.750401 -20.798306 25.135401
					CHANNELS 3 Xrotation Yrotation Zrotation
					JOINT LeftToe_End
					{
						OFFSET -0.000500 0.001200 19.917799
						CHANNELS 3 Xrotation Yrotation Zrotation
						End Site
						{
							OFFSET 0.000000 0.000000 0.000000
						}
					}
				}
			}
		}
	}
	JOINT RightUpLeg
	{
		OFFSET -18.162500 -13.585098 -0.041000
		CHANNELS 3 Xrotation Yrotation Zrotation
		JOINT RightLeg
		{
			OFFSET -0.595024 -80.945297 -3.631900
			CHANNELS 3 Xrotation Yrotation Zrotation
			JOINT RightFoot
			{
				OFFSET 0.595024 -83.218193 -6.561200
				CHANNELS 3 Xrotation Yrotation Zrotation
				JOINT RightToeBase
				{
					OFFSET -0.753601 -20.807106 25.115000
					CHANNELS 3 Xrotation Yrotation Zrotation
					JOINT RightToe_End
					{
						OFFSET 0.000299 0.001700 19.918200
						CHANNELS 3 Xrotation Yrotation Zrotation
						End Site
						{
							OFFSET 0.000000 0.000000 0.000000
						}
					}
				}
			}
		}
	}
}
MOTION
Frames: 4
Frame Time: 0.016667
-1.826305 198.849533 -0.642389 -4.127573 -2.964319 -5.163099 3.232580 1.750069 1.748493 1.020359 0.749897 0.717556 0.000000 0.000000 0.000000 1.000478 0.792372 0.722475 6.482205 0.305469 -2.861423 -2.972747 2.891681 -5.609765 -0.000000 -0.000000 0.000000 -0.000000 -0.000000 0.000000 -0.000000 -0.000000 0.000000 0.772314 -16.269434 -14.222517 0.000000 0.000000 0.000000 5.126275 -16.546721 -64.829021 0.000006 -0.593717 0.000024 -34.254075 -4.043524 -5.974735 -0.052819 2.473468 -12.518483 0.258287 1.721979 -17.059658 0.289440 1.820360 -18.067560 -0.000000 0.000000 0.000002 -0.695022 2.080706 4.942501 12.050408 25.825391 16.935229 -14.022010 2.941489 8.991042 0.000000 0.000001 -0.000005 0.086380 -0.744197 -8.537455 0.274007 1.772374 -17.575229 0.060572 0.841174 -8.237385 0.000001 0.000000 0.000000 0.164515 3.707430 -20.983734 0.392504 2.110109 -21.072209 0.287891 1.815600 -18.018693 -0.000000 -0.000001 0.000001 0.774724 5.396808 -26.756694 0.272000 1.766031 -17.510259 0.244956 1.677946 -16.610241 0.000001 -0.000000 -0.000004 1.575590 15.418232 12.939372 0.000000 0.000000 0.000000 13.007626 29.804917 61.801437 0.000002 6.657505 -0.000005 -22.176137 -0.556368 7.742212 -0.049058 -2.141976 10.055341 0.178480 -1.278217 15.896724 0.201688 -1.357068 16.906187 0.000000 0.000002 0.000001 -2.066334 0.648727 -4.217397 12.255686 -28.937497 -16.285838 -15.763807 -3.083823 -12.553285 -0.000002 0.000001 0.000004 0.038791 1.643547 5.863329 0.190425 -1.319416 16.423497 0.035490 -0.574457 7.070113 0.000002 -0.000001 -0.000003 0.261574 -3.683923 19.286077 0.308701 -1.668954 20.957435 0.226069 -1.434793 17.906738 0.000002 0.000001 0.000002 0.692588 -4.797416 25.443054 0.207415 -1.375765 17.146340 0.186325 -1.305446 16.244801 -0.000002 0.000001 0.000002 -17.477291 13.517000 14.289037 20.075531 -0.579106 4.398123 -0.249194 0.252407 -7.964132 -4.928527 0.000007 -0.000002 -0.000000 -0.000001 0.000000 -2.108286 -10.429896 5.410145 11.886180 -10.002369 -3.212645 -4.908132 -4.056679 2.432717 -7.282878 -0.000007 -0.000001 -0.000001 -0.000000 -0.000000 
-1.793327 198.888565 -0.674438 -4.102517 -2.956704 -5.095698 3.244987 1.751237 1.770000 1.033307 0.748858 0.744577 0.000000 0.000000 0.000000 1.013303 0.790665 0.749618 6.544961 0.295824 -2.780179 -2.926557 2.867852 -5.480875 -0.000001 0.000000 0.000000 -0.000001 0.000000 0.000000 -0.000001 0.000000 0.000000 0.780569 -16.293599 -14.161405 0.000000 0.000000 0.000000 5.175026 -16.565743 -64.898149 0.000000 -0.606702 -0.000003 -34.306538 -3.957992 -6.017734 -0.049097 2.527745 -12.920723 0.259123 1.724700 -17.087427 0.290324 1.823066 -18.095396 0.000001 -0.000000 0.000003 -0.684301 2.108556 4.896747 12.023094 25.769679 16.952343 -14.000760 3.002549 8.995706 0.000001 -0.000000 -0.000000 0.078806 -0.763310 -8.468380 0.273897 1.772022 -17.571637 0.060519 0.840810 -8.233792 0.000001 -0.000000 -0.000002 0.162465 3.702264 -20.988400 0.391208 2.106746 -21.037017 0.286789 1.812216 -17.983960 -0.000000 -0.000000 0.000003 0.801129 5.424403 -26.817572 0.271752 1.765241 -17.502146 0.244719 1.677152 -16.602144 0.000000 0.000000 0.000003 1.559805 15.437426 13.015887 0.000000 0.000000 0.000000 13.502355 30.444489 61.556376 -0.000001 6.761920 -0.000009 -21.711042 -0.782979 7.765775 -0.050442 -2.181477 10.551778 0.181071 -1.287298 16.012651 0.204443 -1.366091 17.022102 0.000003 -0.000001 -0.000001 -2.104307 0.806963 -4.566922 12.400346 -29.221810 -16.236910 -15.751745 -3.110482 -12.561927 0.000002 -0.000001 0.000000 0.028049 1.522755 6.273270 0.192920 -1.327864 16.531824 0.036579 -0.583219 7.178387 0.000003 -0.000001 -0.000002 0.262522 -3.688386 19.506298 0.311491 -1.676216 21.053097 0.228465 -1.442195 18.002362 0.000000 0.000001 0.000004 0.654324 -4.735986 25.790041 0.207369 -1.375587 17.144079 0.186247 -1.305212 16.241739 -0.000002 0.000003 -0.000004 -17.391762 13.548868 14.174290 19.876363 -0.579273 4.401231 -0.143164 0.254429 -7.945494 -4.928527 0.000007 -0.000001 -0.000000 -0.000000 0.000000 -2.117886 -10.431383 5.334367 11.804373 -10.002447 -3.212204 -4.851480 -4.054332 2.436268 -7.282879 -0.000005 -0.000001 0.000001 -0.000002 -0.000000 
-1.753550 198.927719 -0.710876 -4.073854 -2.955247 -5.023087 3.257313 1.749926 1.793489 1.046554 0.743677 0.773083 0.000000 0.000000 0.000000 1.026408 0.784739 0.778216 6.590835 0.285876 -2.698500 -2.903211 2.844476 -5.361552 0.000000 0.000000 -0.000001 0.000000 0.000000 -0.000001 0.000000 0.000000 -0.000001 0.789405 -16.328587 -14.096891 0.000000 0.000000 0.000000 5.221974 -16.630008 -64.962995 -0.000009 -0.623172 -0.000005 -34.289455 -3.785962 -6.090836 -0.049769 2.565635 -13.371761 0.260451 1.729013 -17.131547 0.291728 1.827354 -18.139430 -0.000000 0.000000 0.000004 -0.693379 2.090177 4.894353 11.982426 25.686566 16.977820 -13.973856 3.079748 9.001577 -0.000001 0.000000 0.000002 0.051606 -0.807825 -8.371164 0.273259 1.770012 -17.551028 0.060216 0.838722 -8.213200 0.000001 0.000000 -0.000000 0.159132 3.695090 -21.026541 0.390793 2.105659 -21.025619 0.286459 1.811195 -17.973464 0.000000 -0.000001 -0.000002 0.827309 5.452032 -26.887984 0.271310 1.763849 -17.487914 0.244302 1.675753 -16.587893 0.000000 0.000000 0.000001 1.543809 15.480754 13.095610 0.000000 0.000000 0.000000 13.899741 30.928889 61.331110 -0.000010 6.854703 0.000026 -21.312490 -0.914524 7.615598 -0.054836 -2.202600 11.035605 0.184548 -1.299333 16.166404 0.208126 -1.378055 17.175873 -0.000001 -0.000001 0.000001 -2.010705 0.589570 -4.467418 12.533461 -29.481781 -16.191660 -15.732396 -3.153394 -12.575825 -0.000001 0.000000 0.000004 0.033916 1.530743 6.182146 0.193776 -1.330730 16.568412 0.036959 -0.586187 7.214950 -0.000000 0.000001 -0.000004 0.248839 -3.650911 19.611295 0.310479 -1.673591 21.018302 0.227595 -1.439493 17.967501 -0.000000 0.000001 0.000004 0.698272 -4.806277 25.763253 0.207564 -1.376234 17.152427 0.186460 -1.305920 16.250775 -0.000002 0.000002 0.000001 -17.305643 13.582425 14.051277 19.671583 -0.573093 4.403871 -0.033897 0.256738 -7.924479 -4.928527 0.000007 -0.000001 0.000000 -0.000001 0.000000 -2.141844 -10.433009 5.248950 11.735459 -10.002552 -3.211958 -4.797728 -4.046634 2.442925 -7.282878 -0.000007 -0.000001 -0.000000 0.000000 -0.000000 
-1.706352 198.966965 -0.751279 -4.042879 -2.961114 -4.945897 3.269275 1.746030 1.818527 1.059750 0.734276 0.802631 0.000000 0.000000 0.000000 1.039445 0.774530 0.807822 6.624014 0.275873 -2.616435 -2.901953 2.823435 -5.251185 -0.000000 -0.000000 -0.000000 -0.000000 -0.000000 -0.000000 -0.000000 -0.000000 -0.000000 0.798704 -16.372033 -14.029827 0.000000 0.000000 0.000000 5.264352 -16.728306 -65.028175 0.000010 -0.642870 -0.000018 -34.196233 -3.558472 -6.170693 -0.052738 2.595252 -13.845852 0.262045 1.734163 -17.184160 0.293407 1.832465 -18.191990 -0.000000 0.000000 0.000002 -0.707692 2.058815 4.909212 11.939924 25.599438 17.004354 -13.944707 3.163363 9.007922 0.000002 -0.000002 0.000001 0.016205 -0.861333 -8.273628 0.272382 1.767231 -17.522538 0.059800 0.835837 -8.184730 0.000000 -0.000001 -0.000001 0.155245 3.687237 -21.082936 0.390735 2.105514 -21.024062 0.286445 1.811151 -17.973025 -0.000001 0.000000 0.000003 0.852173 5.478534 -26.965244 0.270756 1.762081 -17.469804 0.243775 1.673979 -16.569800 0.000000 0.000001 0.000000 1.527578 15.541836 13.177830 0.000000 0.000000 0.000000 14.166012 31.210495 61.151817 0.000004 6.924893 -0.000002 -21.003687 -0.964092 7.344796 -0.063023 -2.215141 11.633276 0.189247 -1.315467 16.372802 0.213113 -1.394091 17.382242 -0.000001 -0.000001 -0.000001 -1.854640 0.205697 -4.176411 12.618812 -29.647611 -16.162521 -15.705508 -3.213031 -12.595186 -0.000005 -0.000002 0.000001 0.051275 1.592409 5.827164 0.193529 -1.329898 16.557774 0.036849 -0.585319 7.204323 -0.000002 0.000001 -0.000001 0.220585 -3.573076 19.698938 0.307856 -1.666737 20.928191 0.225321 -1.432501 17.877248 0.000000 0.000003 0.000005 0.769764 -4.941143 25.614283 0.207788 -1.376946 17.161637 0.186669 -1.306662 16.260204 -0.000002 0.000000 0.000002 -17.217541 13.617559 13.920640 19.461711 -0.559300 4.405797 0.077935 0.259293 -7.901011 -4.928528 0.000007 -0.000001 -0.000000 0.000000 0.000000 -2.177982 -10.434523 5.154297 11.677952 -10.002581 -3.211937 -4.746196 -4.032400 2.452834 -7.282878 -0.000007 -0.000001 0.000000 -0.000000 -0.000000 
